<svg xmlns="http://www.w3.org/2000/svg" width="512" height="512" viewBox="0 0 512 512" style=""
     data-bbox="38.98 35.525 417.05 426.434">
    <g data-icon=""
       transform="matrix(0.3745090365409851, 0, 0, 0.3745090365409851, 157.99273681640625, 156.0889434814453)">
        <path d="m504.489 256c0 55.99-10.464 107.782-40.958 149.92-46.617-63.185-121.59-104.169-206.135-104.169-85.395 0-212.936 98.543-215.486 94.663-26.496-40.316-41.91-88.565-41.91-140.414 0-141.385 114.615-256 256-256 131.014 0 239.041 98.417 254.185 225.353 1.198 10.049-5.696 20.276-5.696 30.647z"
              fill="#83afe4"/>
        <path d="m461.294 220.148c0 108.295-87.791 196.086-196.086 196.086s-196.086-87.791-196.086-196.086 87.791-196.087 196.086-196.087 196.086 87.791 196.086 196.087z"
              fill="#b3cbed"/>
        <path d="m265.208 90v10c0 5.523-4.477 10-10 10h-85.208c-5.523 0-10-4.477-10-10v-10c0-5.523 4.477-10 10-10h85.208c5.523 0 10 4.477 10 10z"
              fill="#ff9500"/>
        <path d="m220.104 77.5v15c0 4.142-3.358 7.5-7.5 7.5s-7.5-3.358-7.5-7.5v-15c0-4.142 3.358-7.5 7.5-7.5s7.5 3.358 7.5 7.5zm-32.604-7.5c-4.142 0-7.5 3.358-7.5 7.5v15c0 4.142 3.358 7.5 7.5 7.5s7.5-3.358 7.5-7.5v-15c0-4.142-3.358-7.5-7.5-7.5zm50 0c-4.142 0-7.5 3.358-7.5 7.5v15c0 4.142 3.358 7.5 7.5 7.5s7.5-3.358 7.5-7.5v-15c0-4.142-3.358-7.5-7.5-7.5z"
              fill="#ffc143"/>
        <path d="m292.604 12.5h-160c-4.142 0-7.5 3.357-7.5 7.5v150c0 4.143 3.358 7.5 7.5 7.5h160c4.143 0 7.5-3.357 7.5-7.5v-150c0-4.143-3.357-7.5-7.5-7.5zm-7.5 150h-145v-135h145z"
              fill="#002c5d"/>
        <path d="m104.306 90h248.992c16.569 0 30 13.431 30 30v358.156c-37.495 21.532-80.959 33.844-127.298 33.844-57.835 0-111.191-19.179-154.054-51.523-1.628-1.228-3.24-19.103-4.837-20.369-8.003-6.343-15.617-13.155-22.803-20.393v-299.715c0-16.569 13.432-30 30-30z"
              fill="#005aaf"/>
        <path d="m111.702 90c-16.569 0-30 13.431-30 30v303.681s-10.186 9.946-14.963 4.704c-9.085-9.968-17.393-20.657-24.828-31.971v-276.414c0-16.569 13.432-30 30-30z"
              fill="#004b94"/>
        <path d="m199.979 15v10c0 8.284-6.716 15-15 15h-29.979c-8.284 0-15-6.716-15-15v-10c0-8.284 6.716-15 15-15h29.979c8.284 0 15 6.716 15 15z"
              fill="#004b94"/>
        <path d="m285.208 15v10c0 8.284-6.716 15-15 15h-85.612c-8.284 0-15-6.716-15-15v-10c0-8.284 6.716-15 15-15h85.612c8.284 0 15 6.716 15 15z"
              fill="#005aaf"/>
        <path d="m356.157 136.638v324.258c0 8.284-6.716 15-15 15h-5.208c-8.284 0-15-6.716-15-15v-324.258c0-8.284 6.716-15 15-15h5.208c8.284 0 15 6.716 15 15zm-78.553-15h-5.208c-8.284 0-15 6.716-15 15v324.258c0 8.284 6.716 15 15 15h5.208c8.284 0 15-6.716 15-15v-324.258c0-8.284-6.716-15-15-15zm-63.553 0h-5.208c-8.284 0-15 6.716-15 15v324.258c0 8.284 6.716 15 15 15h5.208c8.284 0 15-6.716 15-15v-324.258c0-8.284-6.715-15-15-15zm-63.552 0h-5.208c-8.284 0-15 6.716-15 15v324.258c0 8.284 6.716 15 15 15h5.208c8.284 0 15-6.716 15-15v-324.258c0-8.284-6.716-15-15-15zm-63.553 0h-5.208c-8.284 0-15 6.716-15 15v291.747c10.709 11.75 22.497 22.5 35.208 32.091v-323.838c0-8.284-6.716-15-15-15z"
              fill="#004b94"/>
        <path d="m256 222.535v167.801c0 5.523-4.477 10-10 10h-110.649c-5.523 0-10-4.477-10-10v-167.801c0-5.523 4.477-10 10-10h110.649c5.523 0 10 4.477 10 10z"
              fill="#ff9500"/>
        <path d="m512 222.535v167.801c0 5.523-4.477 10-10 10h-262.949c-5.523 0-10-4.477-10-10v-167.801c0-5.523 4.477-10 10-10h262.949c5.523 0 10 4.477 10 10z"
              fill="#ffb509"/>
        <path d="m151.468 440h-51.468c-5.523 0-10-4.477-10-10v-167.801c0-5.523 4.477-10 10-10h51.468c5.523 0 10 4.477 10 10v167.801c0 5.523-4.477 10-10 10z"
              fill="#ffb509"/>
        <path d="m196.186 440h-60.835c-5.523 0-10-4.477-10-10v-167.801c0-5.523 4.477-10 10-10h60.835c5.523 0 10 4.477 10 10v167.801c0 5.523-4.477 10-10 10z"
              fill="#ffc143"/>
        <path d="m476.649 262.199v167.801c0 5.523-4.477 10-10 10h-277.974v-187.801h277.974c5.523 0 10 4.477 10 10z"
              fill="#ffe7bf"/>
        <path d="m446.649 289.463v113.274c0 5.523-4.477 10-10 10h-141.441c-5.523 0-10-4.477-10-10v-113.274c0-5.523 4.477-10 10-10h141.441c5.523 0 10 4.477 10 10z"
              fill="#ffd98f"/>
        <path d="m401.681 301.751c0-4.142 3.358-7.5 7.5-7.5h15.492c4.142 0 7.5 3.358 7.5 7.5s-3.358 7.5-7.5 7.5h-15.492c-4.142 0-7.5-3.358-7.5-7.5zm22.992 24.801h-15.492c-4.142 0-7.5 3.358-7.5 7.5s3.358 7.5 7.5 7.5h15.492c4.142 0 7.5-3.358 7.5-7.5s-3.358-7.5-7.5-7.5z"
              fill="#ffb509"/>
        <path d="m375.798 309.251h-67.672c-4.142 0-7.5-3.358-7.5-7.5 0-4.142 3.358-7.5 7.5-7.5h67.672c4.142 0 7.5 3.358 7.5 7.5 0 4.142-3.358 7.5-7.5 7.5zm7.5 24.801c0-4.142-3.358-7.5-7.5-7.5h-67.672c-4.142 0-7.5 3.358-7.5 7.5 0 4.142 3.358 7.5 7.5 7.5h67.672c4.142 0 7.5-3.357 7.5-7.5zm48.875 54.056v-21.755c0-4.142-3.358-7.5-7.5-7.5h-116.547c-4.142 0-7.5 3.358-7.5 7.5v21.755c0 4.142 3.358 7.5 7.5 7.5h116.547c4.142 0 7.5-3.357 7.5-7.5z"
              fill="#ffc143"/>
        <path d="m259.895 346.1c0 35.869-29.078 64.948-64.948 64.948s-64.948-29.078-64.948-64.948 29.078-64.948 64.948-64.948 64.948 29.078 64.948 64.948z"
              fill="#f5eeeb"/>
        <path d="m259.889 345.212h-62.786v65.8c-.716.023-1.434.035-2.156.035-9.345 0-18.229-1.974-26.259-5.528v-60.307h-38.683c.137-10.214 2.631-19.859 6.964-28.415h31.719v-30.118c8.029-3.553 16.913-5.527 26.259-5.527.722 0 1.44.012 2.156.035v35.611h55.821c4.334 8.556 6.828 18.2 6.965 28.414z"
              fill="#0573cf"/>
        <path d="m194.948 273.651c-39.948 0-72.448 32.5-72.448 72.448 0 39.947 32.5 72.447 72.448 72.447s72.448-32.5 72.448-72.447c0-39.948-32.5-72.448-72.448-72.448zm0 129.896c-31.677 0-57.448-25.771-57.448-57.447s25.771-57.448 57.448-57.448 57.448 25.771 57.448 57.448-25.771 57.447-57.448 57.447z"
              fill="#ff9500"/>
        <path d="m490 435.002c0 12.962-3.795 25.039-10.334 35.178-1.326 2.057-3.083 3.813-5.139 5.139-10.14 6.539-22.216 10.334-35.178 10.334-35.834.001-65.01-29.181-65.002-65.015.003-13.032 3.841-25.167 10.446-35.339 1.259-1.938 2.916-3.595 4.854-4.854 10.175-6.608 22.315-10.446 35.351-10.447 35.829.001 65.003 29.174 65.002 65.004z"
              fill="rgba(87, 209, 49, 1)"/>
        <path d="m480.056 469.568c-11.504 18.282-31.861 30.432-55.056 30.432-35.898 0-65-29.102-65-65 0-23.195 12.15-43.552 30.432-55.056-6.3 10.013-9.944 21.865-9.944 34.568 0 35.898 29.102 65 65 65 12.703 0 24.555-3.644 34.568-9.944z"
              fill="rgba(87, 209, 49, 1)"/>
        <path d="m482.195 402.464-56.091 56.091c-1.464 1.464-3.384 2.196-5.303 2.196s-3.839-.732-5.303-2.196l-26.375-26.374c-2.929-2.93-2.929-7.678 0-10.607 2.929-2.928 7.678-2.928 10.606 0l21.071 21.071 50.788-50.788c2.929-2.928 7.678-2.928 10.606 0 2.93 2.929 2.93 7.677.001 10.607z"
              fill="#fff"/>
    </g>
    <path text-anchor="middle" offset="0.5" fill="rgba(87, 209, 49, 1)" space="preserve"
          font-scale="contain" font-size="92" font-family="Roboto Condensed"
          text="Galway Tourism" font-style="italic" font-weight="700"
          path="M87.03999999999999 256C87.03999999999999 30.72 424.96000000000004 30.72 424.96000000000004 256"
          data-fl-textpath=""
          transform="matrix(0.9362727999687195, 0, 0, 0.9362727999687195, 14.181231498718262, 12.27745246887207)"
          d="M 58.763 205.275L 83.715 212.286Q 87.097 216.176  88.477 221.927Q 89.857 227.678  88.994 233.97L 88.994 233.97Q 88.274 239.513  85.384 243.279Q 82.494 247.046  77.675 248.711Q 72.857 250.377  66.91 249.819L 66.91 249.819Q 63.679 249.553  60.386 248.716L 60.386 248.716L 50.379 245.947Q 37.754 242.424  31.525 235.131Q 25.287 227.837  26.772 217.542L 26.772 217.542Q 28.02 208.758  33.7 204.921Q 39.388 201.095  49.473 202.242L 49.473 202.242L 47.986 214.038L 44.586 213.752Q 37.917 213.499  36.973 219.387L 36.973 219.387Q 35.56 228.11  47.114 232.318L 47.114 232.318L 50.212 233.343L 61.886 236.488Q 65.887 237.543  68.772 237.766L 68.772 237.766Q 73.542 238.139  75.912 236.476Q 78.282 234.812  78.803 231.309L 78.803 231.309Q 79.287 228.014  77.552 223.68L 77.552 223.68L 66.471 220.135L 65.428 228.641L 56.242 225.831L 58.763 205.275ZM 104.188 175.188L 99.931 185.925Q 98.458 185.707  96.478 184.922L 96.478 184.922Q 99.198 190.217  97.344 194.893L 97.344 194.893Q 95.296 199.814  90.539 201.392Q 85.792 202.974  80.58 200.628L 80.58 200.628Q 73.897 197.569  72.003 191.085Q 70.101 184.597  73.414 176.24L 73.414 176.24L 74.686 173.033L 71.406 171.13L 69.669 170.301Q 66.221 168.934  65.119 171.714L 65.119 171.714Q 63.485 175.509  68.182 178.339L 68.182 178.339L 63.946 189.267Q 57.979 186.492  55.993 180.24Q 53.995 173.994  56.756 167.247L 56.756 167.247Q 59.452 160.936  64.655 159.073Q 69.864 157.222  75.953 160.368L 75.953 160.368L 96.361 172.493L 98.399 173.484Q 101.106 174.741  103.487 174.867L 103.487 174.867L 104.188 175.188ZM 89.772 188.405L 89.772 188.405Q 91.002 185.547  89.378 182.02L 89.378 182.02L 81.075 176.48L 80.132 178.86Q 79.033 182.093  80.246 184.811Q 81.456 187.539  84.309 189.133L 84.309 189.133L 85.8 189.767Q 87.065 190.269  88.159 189.95Q 89.245 189.627  89.772 188.405ZM 65.517 113.583L 114.203 158.81L 107.765 168.712L 59.058 123.518L 65.517 113.583ZM 112.083 92.11L 130.625 110.093L 119.385 85.381L 127.849 77.581L 146.402 123.2L 139.225 129.814L 120.04 111.444L 129.981 138.332L 122.737 145.007L 90.543 111.958L 98.691 104.449L 115.648 123.663L 105.905 97.802L 112.083 92.11ZM 188.687 98.987L 178.296 104.03Q 177.357 102.874  176.427 100.958L 176.427 100.958Q 174.857 106.7  170.331 108.896L 170.331 108.896Q 165.497 111.143  160.924 109.094Q 156.354 107.054  154.095 101.804L 154.095 101.804Q 151.232 95.035  154.215 88.974Q 157.194 82.904  165.282 78.979L 165.282 78.979L 168.385 77.472L 167.252 73.854L 166.531 72.07Q 164.911 68.732  162.221 70.038L 162.221 70.038Q 158.453 71.733  160.005 76.993L 160.005 76.993L 149.501 82.192Q 146.974 76.115  149.732 70.163Q 152.477 64.207  159.07 61.096L 159.07 61.096Q 165.32 58.263  170.416 60.403Q 175.507 62.556  177.873 68.988L 177.873 68.988L 184.734 91.713L 185.568 93.821Q 186.716 96.576  188.387 98.277L 188.387 98.277L 188.687 98.987ZM 169.129 98.998L 169.129 98.998Q 171.966 97.721  173.15 94.023L 173.15 94.023L 170.769 84.33L 168.466 85.448Q 165.472 87.09  164.531 89.914Q 163.581 92.743  164.609 95.845L 164.609 95.845L 165.28 97.32Q 165.874 98.544  166.897 99.048Q 167.915 99.543  169.129 98.998ZM 200.338 47.599L 207.028 72.561L 211.291 45.029L 223.82 42.089L 212.793 99.188Q 211.682 105.837  208.961 109.342Q 206.232 112.858  201.841 113.888L 201.841 113.888Q 200.05 114.309 196.573 114.2L 196.573 114.2L 195.414 104.796L 196.681 104.591Q 201.382 103.57  202.58 98.78L 202.58 98.78L 203.485 94.059L 188.344 50.413L 200.338 47.599ZM 303.458 27.505L 300.964 37.807L 286.115 36.855L 273.881 87.796L 261.636 87.011L 273.87 36.07L 259.23 35.131L 261.734 24.83L 303.458 27.505ZM 323.202 49.861L 323.202 49.861Q 329.872 51.959  332.387 57.428Q 334.892 62.895  333.135 70.37L 333.135 70.37L 332.297 73.282Q 328.066 85.988  320.399 91.439Q 312.724 96.878  303.744 94.022L 303.744 94.022Q 298.504 92.378  295.847 88.668Q 293.18 84.955  293.082 79.693Q 292.975 74.427  295.435 68.34L 295.435 68.34L 296.321 66.202Q 300.52 56.1  307.734 51.683Q 314.95 47.257  323.202 49.861ZM 305.249 76.182L 305.249 76.182Q 303.207 83.274  307.481 84.764L 307.481 84.764Q 313.287 86.79  317.735 77.956L 317.735 77.956L 319.036 75.136Q 321.299 69.408  321.784 67.726L 321.784 67.726Q 323.812 60.683  319.436 59.111L 319.436 59.111Q 316.244 58.015  313.252 60.566Q 310.249 63.115  307.967 68.91Q 305.672 74.711  305.249 76.182ZM 347.415 111.283L 350.202 108.022Q 343.828 110.331  338.854 107.347L 338.854 107.347Q 334.971 105.032  334.127 101.072Q 333.28 97.097  335.522 92.386L 335.522 92.386Q 336.823 89.649  338.531 87.288L 338.531 87.288L 357.842 63.998L 368.018 69.913L 348.622 93.35L 347.459 95.092Q 346.241 96.848  346.261 98.386Q 346.281 99.924  347.626 100.753L 347.626 100.753Q 350.578 102.619  354.925 100.912L 354.925 100.912L 376.715 74.969L 386.994 80.944L 356.882 116.786L 347.415 111.283ZM 417.823 108.258L 408.508 115.886L 406.05 113.023Q 402.649 109.734  397.419 111.096L 397.419 111.096L 372.75 129.774L 364.106 121.727L 401.401 93.435L 409.509 100.928L 405.366 103.998Q 409.165 102.985  411.542 103.367Q 413.926 103.755  415.609 105.323L 415.609 105.323Q 416.605 106.249  417.823 108.258L 417.823 108.258ZM 433.863 129.449L 392.409 151.193L 385.215 141.828L 426.668 120.083L 433.863 129.449ZM 436.9 114.165L 436.9 114.165Q 439.232 112.373  441.834 112.707Q 444.434 113.055  446.067 115.181L 446.067 115.181Q 447.752 117.227  447.444 119.797Q 447.128 122.373  445.003 124.006L 445.003 124.006Q 442.631 125.827  440.037 125.487Q 437.443 125.147  435.805 123.014L 435.805 123.014Q 434.07 120.904  434.403 118.366Q 434.735 115.828  436.9 114.165ZM 420.079 172.642L 420.079 172.642Q 422.944 171.714  422.818 166.128Q 422.683 160.545  423.422 157.353Q 424.16 154.16  425.897 152.004Q 427.643 149.843  430.564 148.553L 430.564 148.553Q 436.324 146.058  442.107 148.6Q 447.893 151.15  450.903 157.459L 450.903 157.459Q 453.787 163.741  452.005 169.05Q 450.228 174.369  444.372 177.144L 444.372 177.144L 439.188 166.589Q 441.965 165.37  442.681 163.993Q 443.406 162.612  442.542 160.852L 442.542 160.852Q 441.643 159.021  439.774 158.346Q 437.896 157.675  435.987 158.234L 435.987 158.234Q 433.276 158.997  433.462 164.298Q 433.634 169.595  433.276 172.155L 433.276 172.155Q 432.287 179.715  425.518 182.56L 425.518 182.56Q 421.544 184.222  417.596 183.487Q 413.643 182.744  410.332 179.88Q 407.029 177.012  405.079 172.745L 405.079 172.745Q 402.264 166.629  404.174 160.945Q 406.08 155.252  412.008 152.441L 412.008 152.441L 416.914 162.521Q 413.867 163.872  413.099 165.575Q 412.327 167.292  413.433 169.545L 413.433 169.545Q 414.412 171.537  416.15 172.422Q 417.883 173.297  420.079 172.642ZM 464.408 193.779L 466.167 204.557L 461.76 204.48Q 467.765 208.352  468.558 214.403L 468.558 214.403Q 469.429 220.947  463.771 223.885L 463.771 223.885Q 470.907 228.053  471.802 234.432L 471.802 234.432Q 472.479 239.245  469.368 242.344Q 466.259 245.452  459.775 246.446L 459.775 246.446L 455.87 246.856L 426.141 246.676L 424.281 235.013L 454.096 235.22L 456.491 235.061Q 461.59 234.592  461 230.889L 461 230.889Q 460.522 227.897  456.049 226.069L 456.049 226.069L 453.983 226.135L 422.797 225.711L 420.945 214.098L 450.675 214.278L 453.064 214.15Q 458.253 213.667  457.669 210.003L 457.669 210.003Q 457.387 208.235  456.202 207.158Q 455.016 206.072  453.505 205.229L 453.505 205.229L 419.454 204.746L 417.602 193.133L 464.408 193.779Z"/>
    <path text-anchor="middle" offset="0.5" fill="rgba(87, 209, 49, 1)" space="preserve"
          font-scale="contain" font-size="92" font-family="Roboto Condensed" text="Site"
          font-style="italic" font-weight="700" side="right" dy="55.199999999999996"
          path="M424.96000000000004 256C424.96000000000004 481.28 87.03999999999999 481.28 87.03999999999999 256"
          data-fl-textpath=""
          transform="matrix(0.9362727999687195, 0, 0, 0.9362727999687195, 14.181231498718262, 12.27745246887207)"
          d="M 206.136 457.18L 206.136 457.18Q 207.399 454.077  206.58 451.564Q 205.767 449.063  201.969 445.886Q 198.173 442.699  195.829 439.731L 195.829 439.731Q 189.424 431.64  192.447 422.577L 192.447 422.577Q 194.2 417.37  198.214 413.973Q 202.217 410.573  207.72 409.532Q 213.233 408.493  218.815 410.074L 218.815 410.074Q 226.908 412.332  230.093 418.975Q 233.268 425.616  230.733 434.061L 230.733 434.061L 218.301 430.81Q 221.071 422.013  214.925 420.297L 214.925 420.297Q 211.771 419.393  208.942 420.957Q 206.103 422.519  204.744 425.793L 204.744 425.793Q 202.787 430.711  209.556 436.304Q 216.326 441.898  218.513 447.283L 218.513 447.283Q 220.963 453.252  218.554 460.283L 218.554 460.283Q 215.777 468.387  208.63 471.804Q 201.491 475.232  192.742 472.795L 192.742 472.795Q 183.955 470.348  180.322 463.197Q 176.689 456.046  179.463 447.074L 179.463 447.074L 191.985 450.338Q 190.191 455.865  191.371 458.74Q 192.562 461.618  196.436 462.615L 196.436 462.615Q 199.835 463.448  202.325 461.879Q 204.812 460.32  206.136 457.18ZM 254.188 431.785L 242.89 479.812L 230.471 479.08L 241.76 431.051L 254.188 431.785ZM 244.104 418.818L 244.104 418.818Q 244.287 415.723  246.359 413.892Q 248.421 412.051  251.246 412.217L 251.246 412.217Q 254.036 412.292  255.87 414.313Q 257.704 416.335  257.538 419.16L 257.538 419.16Q 257.352 422.304  255.291 424.136Q 253.229 425.968  250.404 425.801L 250.404 425.801Q 247.524 425.721  245.729 423.712Q 243.935 421.693  244.104 418.818ZM 268.192 419.214L 280.557 418.285L 279.388 430.346L 285.66 429.875L 284.722 439.542L 278.45 440.014L 276.167 464.744L 276.134 466.181Q 276.18 469.196  278.879 469.083L 278.879 469.083Q 279.641 469.076  281.904 468.635L 281.904 468.635L 281.535 478.661Q 278.836 479.987  275.167 480.263L 275.167 480.263Q 269.735 480.581  266.717 476.987Q 263.699 473.383  263.832 466.744L 263.832 466.744L 266.085 440.943L 260.62 441.353L 261.558 431.686L 266.983 431.278L 268.192 419.214ZM 318.229 473.021L 318.229 473.021Q 312.544 474.523  307.833 472.877Q 303.123 471.23  300.022 466.791Q 296.925 462.36  295.901 455.881L 295.901 455.881L 295.411 452.573Q 293.652 440.521  297.617 432.802Q 301.592 425.081  310.402 422.912L 310.402 422.912Q 316.864 421.332  321.576 424.16Q 326.281 427  328.771 433.722L 328.771 433.722Q 330.244 437.746  330.799 441.824L 330.799 441.824L 331.519 447.681L 308.117 454.077Q 308.407 456.009  308.965 457.712L 308.965 457.712Q 310.98 463.868  316.824 462.416L 316.824 462.416Q 322.283 461.111  326.183 455.432L 326.183 455.432L 332.253 461.786Q 330.757 465.679  326.995 468.718Q 323.24 471.745  318.229 473.021ZM 311.992 433.321L 311.992 433.321Q 306.773 434.519  306.597 441.876L 306.597 441.876L 306.593 445.277L 318.529 442.067Q 318.275 439.431  317.887 437.857L 317.887 437.857Q 316.558 432.312  311.992 433.321Z"/>
</svg>
